<svg xmlns="http://www.w3.org/2000/svg"  viewBox="0 0 40 40" width="160px" height="160px"><path fill="#839cb2" d="M20,38.5c-6.818,0-14.5-13.96-14.5-21.4C5.5,9.665,13.089,1.5,20,1.5c7.193,0,14.5,9.076,14.5,15.6 C34.5,23.651,27.069,38.5,20,38.5z"/><path fill="#66798f" d="M20,2c6.945,0,14,8.785,14,15.1C34,24.186,26.442,38,20,38C13.417,38,6,24.366,6,17.1 C6,10.044,13.458,2,20,2 M20,1C12.6,1,5,9.7,5,17.1S12.6,39,20,39s15-14.9,15-21.9S27.4,1,20,1L20,1z"/><path fill="#f2faff" d="M32,16.667c0-2.108-1.407-3.868-3.326-4.448C27.747,7.657,23.684,4,20,4	c-3.685,0-7.943,3.467-8.68,8.221C9.404,12.802,8,14.561,8,16.667c0,2.319,1.697,4.229,3.914,4.591	c0.029,0.026,0.057,0.048,0.086,0.076c0.684,0.786,1.938,3.481,2.524,4.954C16.382,30.807,16.871,36,20,36	c4.208,0,3.914-10.652,8-14.667c0.028-0.028,0.057-0.05,0.086-0.076C30.303,20.896,32,18.986,32,16.667z"/><path fill="#839cb2" d="M18.495,19.484c0.05-0.727,1.019-2.665,1.509-2.965c0.484,0.299,1.444,2.23,1.501,2.963 c-0.309-0.052-0.524-0.208-0.735-0.36c-0.224-0.162-0.456-0.33-0.766-0.33c-0.363,0-0.618,0.191-0.843,0.36 C18.959,19.304,18.779,19.439,18.495,19.484z"/><path fill="#66798f" d="M20.002,17.257c0.218,0.308,0.464,0.764,0.658,1.201c-0.184-0.094-0.401-0.166-0.656-0.166 c-0.255,0-0.472,0.064-0.656,0.151C19.541,18.01,19.785,17.561,20.002,17.257 M20.004,16c-0.856,0-2.709,4-1.721,4 c0.988,0,1.243-0.708,1.721-0.708c0.383,0,0.753,0.708,1.721,0.708S20.86,16,20.004,16L20.004,16z"/><path fill="#839cb2" d="M13,18.5c-0.827,0-1.5-0.673-1.5-1.5s0.673-1.5,1.5-1.5c1.341,0,3.365-1.4,3.815-3.034 c0.234-0.849,0.547-0.966,0.851-0.966c0.46,0,0.834,0.374,0.834,0.833C18.5,14.637,17.785,18.5,13,18.5z"/><path fill="#66798f" d="M17.667,12C17.85,12,18,12.15,18,12.333C18,14.918,17.133,18,13,18c-0.551,0-1-0.449-1-1 s0.449-1,1-1c1.522,0,3.778-1.517,4.297-3.401C17.463,12,17.6,12,17.667,12 M17.667,11c-0.736,0-1.111,0.528-1.333,1.333 C15.934,13.779,14.105,15,13,15c-1.105,0-2,0.895-2,2s0.895,2,2,2c4.278,0,6-2.917,6-6.667C19,11.597,18.403,11,17.667,11 L17.667,11z"/><g><path fill="#839cb2" d="M27,18.5c-4.785,0-5.5-3.863-5.5-6.167c0-0.459,0.374-0.833,0.834-0.833 c0.304,0,0.616,0.117,0.851,0.967C23.634,14.1,25.659,15.5,27,15.5c0.827,0,1.5,0.673,1.5,1.5S27.827,18.5,27,18.5z"/><path fill="#66798f" d="M22.333,12c0.066,0,0.204,0,0.369,0.599C23.222,14.483,25.478,16,27,16c0.551,0,1,0.449,1,1 s-0.449,1-1,1c-4.133,0-5-3.082-5-5.667C22,12.15,22.15,12,22.333,12 M22.333,11C21.597,11,21,11.597,21,12.333 C21,16.083,22.722,19,27,19c1.105,0,2-0.895,2-2s-0.895-2-2-2c-1.105,0-2.934-1.221-3.333-2.667C23.444,11.528,23.07,11,22.333,11 L22.333,11z"/></g><g><path fill="#839cb2" d="M20,33.5c-0.552,0-1-0.374-1-0.833c0-2.678-0.662-5.621-1.101-7.568 C17.685,24.146,17.5,23.325,17.5,23c0-0.813,1.145-1.5,2.5-1.5s2.5,0.687,2.5,1.5c0,0.328-0.188,1.168-0.404,2.14 C21.659,27.097,21,30.053,21,32.667C21,33.126,20.552,33.5,20,33.5z"/><path fill="#66798f" d="M20,22c1.221,0,2,0.592,2,1c0,0.273-0.199,1.167-0.392,2.032c-0.441,1.978-1.108,4.967-1.108,7.635 C20.5,32.824,20.286,33,20,33s-0.5-0.176-0.5-0.333c0-2.733-0.67-5.709-1.113-7.678C18.197,24.143,18,23.269,18,23 C18,22.592,18.779,22,20,22 M20,21c-1.657,0-3,0.895-3,2s1.5,5.667,1.5,9.667C18.5,33.403,19.172,34,20,34s1.5-0.597,1.5-1.333 C21.5,28.75,23,24.105,23,23S21.657,21,20,21L20,21z"/></g></svg>