<svg xmlns="http://www.w3.org/2000/svg"  viewBox="0 0 40 40" width="160px" height="160px"><rect width="14.813" height="13.554" x="11.687" y="24" fill="#ffeea3"/><path fill="#ba9b48" d="M27,38.054H11.187V23.5H27V38.054z M12.187,37.054H26V24.5H12.187V37.054z"/><rect width="1" height="9.011" x="23" y="27.898" fill="#ba9b48"/><rect width="1" height="9.011" x="20" y="27.898" fill="#ba9b48"/><rect width="1" height="9.011" x="17" y="27.898" fill="#ba9b48"/><path fill="#c5d4de" d="M14.5,32.41L14.5,32.41c0-1.773,1.437-3.209,3.209-3.209l11.023,0V13.4c0-4.345-3.796-7.9-8.435-7.9	h-4.361C11.296,5.5,7.5,9.055,7.5,13.4v25.421h19.192V35.62h-8.983C15.937,35.62,14.5,34.183,14.5,32.41z"/><path fill="none" stroke="#fff" stroke-linecap="round" stroke-miterlimit="10" d="M15.5,8.703L15.5,8.703c-2.75,0-5,2.25-5,5	V35.5"/><polygon fill="#b0c1d4" points="14.937,25.546 18.927,29.21 28.689,29.21 28.689,26.014"/><rect width="2" height="4.115" x="16.5" y=".5" fill="#c5d4de"/><path fill="#788b9c" d="M19,5.114h-3V0h3V5.114z M17,4.114h1V1h-1V4.114z"/><polygon fill="#e1ebf2" points="19.258,3.5 15.742,3.5 14.584,5.475 20.416,5.475"/><path fill="#788b9c" d="M21.289,5.975h-7.578L15.456,3h4.089L21.289,5.975z M15.457,4.975h4.086L18.971,4h-2.942 L15.457,4.975z"/><rect width="1" height="1.975" x="17" fill="#c5d4de"/><path fill="#788b9c" d="M27,39H7V13.4C7,8.769,10.967,5,15.843,5h4.313C25.033,5,29,8.769,29,13.4V30H17.5 c-1.378,0-2.5,1.121-2.5,2.5s1.122,2.5,2.5,2.5H27V39z M8,38h18v-2h-8.5c-1.93,0-3.5-1.57-3.5-3.5s1.57-3.5,3.5-3.5H28V13.4 C28,9.319,24.481,6,20.157,6h-4.313C11.519,6,8,9.319,8,13.4V38z"/><path fill="#e1ebf2" d="M34.266,17.359l-2.854-1.927c-0.811-0.581-1.797-0.932-2.865-0.932H14.453 c-2.724,0-4.953,2.229-4.953,4.953v0.094c0,1.772,0.951,3.322,2.36,4.198l2.634,1.735l1.001-0.98h13.051 c2.724,0,4.953-2.229,4.953-4.953v-0.056l0.832,0.098L34.266,17.359z"/><path fill="#788b9c" d="M14.556,26.12l-2.971-1.957C9.971,23.159,9,21.431,9,19.547C9,16.446,11.446,14,14.453,14h14.094 c1.126,0,2.218,0.354,3.156,1.024l3.055,2.064l0.091,3.064l-0.876-0.104C33.696,22.847,31.368,25,28.547,25H15.7L14.556,26.12z M14.453,15C11.998,15,10,16.998,10,19.453c0,1.63,0.794,3.04,2.125,3.867l2.309,1.521L15.292,24h13.255 C31.002,24,33,22.002,33,19.547v-0.563l0.815,0.04l-0.042-1.395l-2.641-1.784C30.354,15.29,29.464,15,28.547,15H14.453z"/><path fill="#36404d" d="M30.766,25.645H18.553c-2.351,0-4.274-1.923-4.274-4.274v0c0-2.351,1.923-4.274,4.274-4.274h12.213	c2.351,0,4.274,1.923,4.274,4.274v0C35.04,23.721,33.117,25.645,30.766,25.645z"/><circle cx="26.051" cy="21.632" r="4.449" fill="#ffeea3"/><path fill="#ba9b48" d="M26.051,26.581c-2.729,0-4.949-2.22-4.949-4.949c0-2.729,2.22-4.948,4.949-4.948 c2.729,0,4.949,2.22,4.949,4.948C31,24.361,28.78,26.581,26.051,26.581z M26.051,17.684c-2.178,0-3.949,1.771-3.949,3.948 c0,2.178,1.771,3.949,3.949,3.949c2.177,0,3.949-1.771,3.949-3.949C30,19.455,28.229,17.684,26.051,17.684z"/><g><circle cx="18.051" cy="21.632" r="4.449" fill="#ffeea3"/><path fill="#ba9b48" d="M18.051,26.581c-2.729,0-4.949-2.22-4.949-4.949c0-2.729,2.22-4.948,4.949-4.948 c2.729,0,4.949,2.22,4.949,4.948C23,24.361,20.78,26.581,18.051,26.581z M18.051,17.684c-2.178,0-3.949,1.771-3.949,3.948 c0,2.178,1.771,3.949,3.949,3.949c2.177,0,3.949-1.771,3.949-3.949C22,19.455,20.229,17.684,18.051,17.684z"/></g><circle cx="24.785" cy="21.632" r=".785" fill="#66798f"/><circle cx="16.785" cy="21.632" r=".785" fill="#66798f"/><g><path fill="#e1ebf2" d="M31.433,16.5H17.567c-2.787,0-5.067,2.25-5.067,5c0,2.75,2.28,5,5.067,5h13.867 c2.787,0,5.067-2.25,5.067-5C36.5,18.75,34.22,16.5,31.433,16.5z M31.13,24.508H17.826c-1.841,0-3.348-1.35-3.348-3 s1.507-3,3.348-3H31.13c1.841,0,3.348,1.35,3.348,3S32.971,24.508,31.13,24.508z"/><path fill="#788b9c" d="M31.433,27H17.567C14.497,27,12,24.532,12,21.5s2.497-5.5,5.567-5.5h13.866 C34.503,16,37,18.468,37,21.5S34.503,27,31.433,27z M17.567,17C15.049,17,13,19.019,13,21.5s2.049,4.5,4.567,4.5h13.866 C33.951,26,36,23.981,36,21.5S33.951,17,31.433,17H17.567z M31.13,25.008H17.826c-2.122,0-3.848-1.57-3.848-3.5 s1.726-3.5,3.848-3.5H31.13c2.122,0,3.848,1.57,3.848,3.5S33.252,25.008,31.13,25.008z M17.826,19.008 c-1.57,0-2.848,1.121-2.848,2.5s1.277,2.5,2.848,2.5H31.13c1.57,0,2.848-1.121,2.848-2.5s-1.278-2.5-2.848-2.5H17.826z"/></g></svg>