<svg width="16" height="16" viewBox="0 0 16 16" fill="none" xmlns="http://www.w3.org/2000/svg">
<g clip-path="url(#clip0_2_2)">
<path fill-rule="evenodd" clip-rule="evenodd" d="M1.475 9C2.702 10.84 4.779 12.871 8 15C11.221 12.871 13.298 10.84 14.525 9H12C11.9001 8.99998 11.8026 8.97006 11.7199 8.91409C11.6372 8.85813 11.5731 8.77869 11.536 8.686L10.079 5.044L8.481 10.637C8.45243 10.7373 8.39321 10.8262 8.31162 10.8911C8.23004 10.9561 8.13018 10.994 8.02602 10.9994C7.92186 11.0048 7.81862 10.9775 7.73076 10.9213C7.64289 10.8651 7.57479 10.7828 7.536 10.686L5.889 6.568L4.416 8.778C4.37027 8.84637 4.30838 8.90239 4.23581 8.94112C4.16325 8.97984 4.08225 9.00007 4 9H1.475ZM0.879 8C-2.426 1.68 4.41 -2 7.824 1.143C7.884 1.198 7.943 1.255 8 1.314C8.05642 1.25505 8.11513 1.19834 8.176 1.144C11.59 -2 18.426 1.68 15.12 8H12.337L10.463 3.314C10.4242 3.21719 10.3561 3.13493 10.2682 3.07874C10.1804 3.02255 10.0771 2.99524 9.97298 3.00064C9.86882 3.00604 9.76896 3.04388 9.68738 3.10886C9.6058 3.17383 9.54657 3.26269 9.518 3.363L7.921 8.956L6.464 5.314C6.43007 5.22951 6.37371 5.1559 6.30101 5.10109C6.22831 5.04628 6.14202 5.01237 6.05146 5.003C5.96089 4.99364 5.86949 5.00918 5.78711 5.04795C5.70473 5.08672 5.6345 5.14725 5.584 5.223L3.732 8H0.88H0.879Z" fill="#5F7161"/>
</g>
<defs>
<clipPath id="clip0_2_2">
<rect width="16" height="16" fill="white"/>
</clipPath>
</defs>
</svg>
