<svg width="20" height="19" viewBox="0 0 20 19" fill="none" xmlns="http://www.w3.org/2000/svg">
<path d="M9.72745 0.0478291C9.60304 0.00106775 9.46843 -0.0117035 9.33745 0.0108292C8.35145 0.178829 7.34245 0.666829 6.43245 1.24083C5.54704 1.80925 4.71078 2.45083 3.93245 3.15883C3.45334 3.58863 2.99609 4.0422 2.56245 4.51783C2.46745 4.63183 2.30245 4.80583 2.10045 5.01783L1.91445 5.21283C1.65945 5.48283 1.35245 5.81283 1.17845 6.05783C0.797449 6.59783 0.432449 7.17783 0.091449 7.80283C-0.00855105 7.98583 -0.0275511 8.20283 0.0394489 8.39983C0.939449 11.0638 3.74345 13.5068 7.02945 15.2638C10.3494 17.0378 14.3464 18.2138 17.8694 18.2138H18.7064C18.9048 18.2138 19.0951 18.135 19.2354 17.9947C19.3756 17.8545 19.4544 17.6642 19.4544 17.4658V14.6698C19.4546 14.1595 19.3125 13.6591 19.0442 13.225C18.7759 12.7908 18.392 12.44 17.9354 12.2118L15.5534 11.0198C15.0733 10.4209 14.6548 9.77491 14.3044 9.09183C13.9324 8.37183 13.6704 7.67383 13.5844 7.12183L14.1264 6.22983C14.5942 5.45971 15.2946 4.85812 16.1264 4.51183L16.9854 4.15383C17.1239 4.09618 17.2419 3.99823 17.324 3.87268C17.4061 3.74714 17.4486 3.59981 17.4459 3.44983C17.4432 3.29985 17.3954 3.15414 17.3089 3.03163C17.2223 2.90912 17.1009 2.81546 16.9604 2.76283L9.72645 0.0478291H9.72745ZM17.9584 14.6818C16.3744 14.4718 15.7084 14.2838 14.4464 13.9198L15.3364 12.5848L17.2664 13.5498C17.6904 13.7618 17.9584 14.1958 17.9584 14.6698V14.6818ZM13.9584 15.3358C15.3504 15.7378 16.0884 15.9508 17.9584 16.1908V16.7178H17.8684C14.6424 16.7178 10.8864 15.6288 7.73545 13.9448C4.70345 12.3248 2.39945 10.2438 1.57045 8.22383C1.65645 8.07283 1.74445 7.92383 1.83445 7.77983C2.68545 8.79283 3.99245 10.0488 5.75045 11.3338C7.19445 12.3898 8.35645 13.1198 10.4334 14.1088C10.4534 14.1188 10.4744 14.1278 10.4954 14.1348L12.9954 15.0588C13.0139 15.0656 13.0326 15.0716 13.0514 15.0768C13.3874 15.1718 13.6854 15.2578 13.9574 15.3368L13.9584 15.3358ZM7.48345 6.39783L5.46045 3.81283C6.00645 3.35383 6.61045 2.89583 7.23045 2.50583C7.99245 2.02583 8.73745 1.67283 9.40045 1.52283L14.7594 3.53483C13.9784 4.01275 13.3229 4.67034 12.8474 5.45283L12.5214 5.99083L9.77845 4.72083C9.64275 4.65794 9.4913 4.63717 9.34368 4.66122C9.19606 4.68526 9.05903 4.75301 8.9503 4.85571C8.84157 4.95842 8.76613 5.09136 8.73371 5.23737C8.70129 5.38338 8.71339 5.53576 8.76845 5.67483L10.9204 11.0988L10.3704 12.4128C9.19624 11.8376 8.07288 11.1638 7.01245 10.3988L7.63245 6.99183C7.65121 6.88783 7.64772 6.78103 7.62221 6.67847C7.5967 6.57591 7.54975 6.47992 7.48445 6.39683L7.48345 6.39783Z" fill="#5F7161"/>
</svg>
